# xmcd
#
# Track frame offsets:
#	150
#	9575
#	20675
#	32466
#	45778
#	55228
#	64515
#	76915
#	86252
#	98364
#	107616
#	118753
#	128849
#	139686
#	149976
#	162746
#	174971
#	184465
#	197678
#	208270
#
# Disc length: 2925 seconds
#
# Revision: 0
# Processed by: cddbd v1.5.2PL0 Copyright (c) Steve Scherf et al.
# Submitted via: EasyCDDAExtractor 15.3.0.1
#
DISCID=0e0b6b14
DTITLE=Various Artist - Collector's Choice Vol. 2 Campus Boogie
DYEAR=1900
DGENRE=
TTITLE0=Collie Jimmie - I'm Not Giving Up That Easy
TTITLE1=Williams Slim - Out Running Around
TTITLE2=Hooper Twins - You're Always The Last To Know
TTITLE3=Sipes Leonard (Tommy Collins) - Smooth Sailing
TTITLE4=Camp Ed - Tie A String Around Your Finger
TTITLE5=Kyles Chuck - You'll Like Country Music
TTITLE6=Fell Terry - Smoking Cornsilks
TTITLE7=Runyon Al - My Baby Left Me
TTITLE8=Coral Betty and Raymond Mccollister - Chili Dippin' Baby
TTITLE9=Derrick Jack - Rainbow Of Love
TTITLE10=O'quin Gene - You're Gonna Be Sorry
TTITLE11=Evans Frank - Barrel Of Heartaches
TTITLE12=Lowrance Joyce and Earny Vandagriff - Hush Money
TTITLE13=Johnson Don - Flying Low
TTITLE14=Tyler T. Texas - Black Jack David
TTITLE15=Brumley Al - You've Been Telling Lies On Me
TTITLE16=Crowe Hank - Love Love Love
TTITLE17=Adams Tiny - Long Gone Daddy
TTITLE18=Hendon R. D. - Ain't Got A Lick Of Sense
TTITLE19=Sipes Leonard (Tommy Collins) - Campus Boogie
EXTD=
EXTT0=
EXTT1=
EXTT2=
EXTT3=
EXTT4=
EXTT5=
EXTT6=
EXTT7=
EXTT8=
EXTT9=
EXTT10=
EXTT11=
EXTT12=
EXTT13=
EXTT14=
EXTT15=
EXTT16=
EXTT17=
EXTT18=
EXTT19=
PLAYORDER=
